<svg width="35" height="35" viewBox="0 0 35 35" fill="none" xmlns="http://www.w3.org/2000/svg">
<g clip-path="url(#clip0_6_53)">
<path d="M30.625 2.1875C31.2052 2.1875 31.7616 2.41797 32.1718 2.8282C32.582 3.23844 32.8125 3.79484 32.8125 4.375V30.625C32.8125 31.2052 32.582 31.7616 32.1718 32.1718C31.7616 32.582 31.2052 32.8125 30.625 32.8125H4.375C3.79484 32.8125 3.23844 32.582 2.8282 32.1718C2.41797 31.7616 2.1875 31.2052 2.1875 30.625V4.375C2.1875 3.79484 2.41797 3.23844 2.8282 2.8282C3.23844 2.41797 3.79484 2.1875 4.375 2.1875H30.625ZM4.375 0C3.21468 0 2.10188 0.460936 1.28141 1.28141C0.460936 2.10188 0 3.21468 0 4.375L0 30.625C0 31.7853 0.460936 32.8981 1.28141 33.7186C2.10188 34.5391 3.21468 35 4.375 35H30.625C31.7853 35 32.8981 34.5391 33.7186 33.7186C34.5391 32.8981 35 31.7853 35 30.625V4.375C35 3.21468 34.5391 2.10188 33.7186 1.28141C32.8981 0.460936 31.7853 0 30.625 0L4.375 0Z" fill="#717171"/>
</g>
<defs>
<clipPath id="clip0_6_53">
<rect width="35" height="35" fill="white"/>
</clipPath>
</defs>
</svg>
