<svg width="35" height="35" viewBox="0 0 35 35" fill="none" xmlns="http://www.w3.org/2000/svg">
<g clip-path="url(#clip0_3_37)">
<path d="M30.625 2.1875C31.2052 2.1875 31.7616 2.41797 32.1718 2.8282C32.582 3.23844 32.8125 3.79484 32.8125 4.375V30.625C32.8125 31.2052 32.582 31.7616 32.1718 32.1718C31.7616 32.582 31.2052 32.8125 30.625 32.8125H4.375C3.79484 32.8125 3.23844 32.582 2.8282 32.1718C2.41797 31.7616 2.1875 31.2052 2.1875 30.625V4.375C2.1875 3.79484 2.41797 3.23844 2.8282 2.8282C3.23844 2.41797 3.79484 2.1875 4.375 2.1875H30.625ZM4.375 0C3.21468 0 2.10188 0.460936 1.28141 1.28141C0.460936 2.10188 0 3.21468 0 4.375L0 30.625C0 31.7853 0.460936 32.8981 1.28141 33.7186C2.10188 34.5391 3.21468 35 4.375 35H30.625C31.7853 35 32.8981 34.5391 33.7186 33.7186C34.5391 32.8981 35 31.7853 35 30.625V4.375C35 3.21468 34.5391 2.10188 33.7186 1.28141C32.8981 0.460936 31.7853 0 30.625 0L4.375 0Z" fill="#717171"/>
<path d="M23.9969 10.8719C24.303 10.5684 24.7163 10.3976 25.1474 10.3964C25.5784 10.3952 25.9926 10.5637 26.3004 10.8655C26.6082 11.1673 26.7849 11.5781 26.7923 12.0091C26.7996 12.4401 26.637 12.8567 26.3397 13.1688L17.6072 24.0844C17.4571 24.246 17.276 24.3758 17.0746 24.4658C16.8732 24.5559 16.6558 24.6044 16.4352 24.6085C16.2147 24.6125 15.9956 24.5721 15.791 24.4896C15.5865 24.407 15.4007 24.2841 15.2447 24.1281L9.45876 18.34C9.29757 18.1898 9.16828 18.0087 9.07861 17.8074C8.98894 17.6062 8.94073 17.3889 8.93684 17.1686C8.93295 16.9484 8.97348 16.7295 9.05599 16.5253C9.13851 16.321 9.26132 16.1354 9.41711 15.9796C9.5729 15.8238 9.75848 15.701 9.96276 15.6185C10.1671 15.536 10.3859 15.4954 10.6062 15.4993C10.8264 15.5032 11.0437 15.5514 11.2449 15.6411C11.4462 15.7308 11.6273 15.8601 11.7775 16.0213L16.3581 20.5997L23.9553 10.92C23.9689 10.9031 23.9835 10.887 23.9991 10.8719H23.9969Z" fill="#717171"/>
</g>
<defs>
<clipPath id="clip0_3_37">
<rect width="35" height="35" fill="white"/>
</clipPath>
</defs>
</svg>
